<svg id="Capa_1" data-name="Capa 1" xmlns="http://www.w3.org/2000/svg" xmlns:xlink="http://www.w3.org/1999/xlink" viewBox="0 0 784.92 717.02"><defs><style>.cls-1{fill:url(#Degradado_sin_nombre_41);}.cls-2,.cls-3,.cls-5{fill:none;}.cls-3{stroke:#034a9e;}.cls-3,.cls-5{stroke-miterlimit:10;}.cls-4{fill:url(#Degradado_sin_nombre_136);}.cls-5{stroke:#000;}.cls-6{fill:url(#Degradado_sin_nombre_175);}.cls-7{fill:url(#Degradado_sin_nombre_136-2);}.cls-8{fill:#fff;}.cls-9{fill:url(#Degradado_sin_nombre_28);}.cls-10{fill:url(#Degradado_sin_nombre_3);}.cls-11{fill:url(#Degradado_sin_nombre_3-2);}.cls-12{fill:url(#Degradado_sin_nombre_3-3);}.cls-13{fill:url(#Degradado_sin_nombre_10);}.cls-14{fill:url(#Degradado_sin_nombre_10-2);}.cls-15{fill:url(#Degradado_sin_nombre_35);}.cls-16{fill:url(#Degradado_sin_nombre_22);}.cls-17{fill:url(#Degradado_sin_nombre_20);}</style><linearGradient id="Degradado_sin_nombre_41" x1="417.04" y1="633.06" x2="417.04" y2="50.37" gradientUnits="userSpaceOnUse"><stop offset="0" stop-color="#007c8d"/><stop offset="0.09" stop-color="#478ea3"/><stop offset="0.33" stop-color="#009bd6"/><stop offset="0.45" stop-color="#94cbdd"/><stop offset="0.45" stop-color="#99cad6"/><stop offset="0.45" stop-color="#a9c9c3"/><stop offset="0.45" stop-color="#c1c6a4"/><stop offset="0.45" stop-color="#e4c279"/><stop offset="0.46" stop-color="#f7c061"/><stop offset="0.57" stop-color="#ed8544"/><stop offset="0.64" stop-color="#ec7e49"/><stop offset="0.74" stop-color="#ea6b56"/><stop offset="0.75" stop-color="#ea6958"/><stop offset="0.88" stop-color="#8e4c6b"/><stop offset="1" stop-color="#2c3873"/></linearGradient><linearGradient id="Degradado_sin_nombre_136" x1="360.1" y1="465.94" x2="360.1" y2="503.96" gradientTransform="matrix(1, 0, 0, -1, -18.57, 794.06)" gradientUnits="userSpaceOnUse"><stop offset="0.09" stop-color="#24488e"/><stop offset="0.47" stop-color="#0d75f1"/><stop offset="1" stop-color="#6dc8e1"/></linearGradient><linearGradient id="Degradado_sin_nombre_175" x1="5.82" y1="661.17" x2="79.84" y2="611.53" gradientTransform="matrix(1.28, 0.05, 0.04, -1.15, 12.97, 926.97)" gradientUnits="userSpaceOnUse"><stop offset="0" stop-color="#0ed1fa"/><stop offset="0.05" stop-color="#0ec8f1"/><stop offset="0.14" stop-color="#0eaed8"/><stop offset="0.25" stop-color="#0f85af"/><stop offset="0.36" stop-color="#0f5681"/><stop offset="0.5" stop-color="#11477d"/><stop offset="0.66" stop-color="#133979"/><stop offset="0.78" stop-color="#171d70"/></linearGradient><linearGradient id="Degradado_sin_nombre_136-2" x1="400.78" y1="534.59" x2="315.02" y2="519.37" xlink:href="#Degradado_sin_nombre_136"/><linearGradient id="Degradado_sin_nombre_28" x1="168.46" y1="566.09" x2="227" y2="638.05" gradientTransform="matrix(0.82, 0.03, 0.04, -0.99, -113.72, 799.79)" gradientUnits="userSpaceOnUse"><stop offset="0" stop-color="#878787"/><stop offset="0.32" stop-color="#bdbdbd"/><stop offset="0.39" stop-color="#cecece"/><stop offset="0.5" stop-color="#e4e4e4"/><stop offset="0.63" stop-color="#f3f3f3"/><stop offset="0.78" stop-color="#fcfcfc"/><stop offset="1" stop-color="#fff"/></linearGradient><linearGradient id="Degradado_sin_nombre_3" x1="249.2" y1="332.29" x2="249.2" y2="332.29" gradientUnits="userSpaceOnUse"><stop offset="0" stop-color="#0ed1fa"/><stop offset="0.05" stop-color="#0ec8f1"/><stop offset="0.14" stop-color="#0eaed8"/><stop offset="0.25" stop-color="#0f85af"/><stop offset="0.36" stop-color="#0f5681"/><stop offset="0.5" stop-color="#11477d"/><stop offset="0.66" stop-color="#133979"/><stop offset="0.78" stop-color="#171d70"/><stop offset="0.99" stop-color="#0e91f6"/></linearGradient><linearGradient id="Degradado_sin_nombre_3-2" x1="249.7" y1="386.22" x2="257.28" y2="386.22" xlink:href="#Degradado_sin_nombre_3"/><linearGradient id="Degradado_sin_nombre_3-3" x1="8.08" y1="433.47" x2="793" y2="433.47" xlink:href="#Degradado_sin_nombre_3"/><linearGradient id="Degradado_sin_nombre_10" x1="612.01" y1="1162.19" x2="643.83" y2="1162.19" gradientTransform="matrix(0.52, -0.82, -0.81, -0.51, 1244.23, 1274.24)" gradientUnits="userSpaceOnUse"><stop offset="0" stop-color="#0d75f1"/><stop offset="0.15" stop-color="#64d0e9"/><stop offset="0.28" stop-color="#6dc8e1"/><stop offset="0.37" stop-color="#77bfd8"/><stop offset="0.54" stop-color="#95cee2"/><stop offset="0.91" stop-color="#e2f5fa"/><stop offset="0.93" stop-color="#e5f7fb"/><stop offset="0.99" stop-color="#d6eff6"/></linearGradient><linearGradient id="Degradado_sin_nombre_10-2" x1="730.36" y1="512.34" x2="777.68" y2="512.34" gradientTransform="matrix(1, 0, 0, -1, -18.57, 794.06)" xlink:href="#Degradado_sin_nombre_10"/><linearGradient id="Degradado_sin_nombre_35" x1="38.15" y1="253.42" x2="793.8" y2="253.42" gradientTransform="matrix(1, 0, 0, -1, -18.57, 794.06)" gradientUnits="userSpaceOnUse"><stop offset="0.08" stop-color="#11477d"/><stop offset="0.39" stop-color="#0eb7f9"/><stop offset="0.52" stop-color="#0ed1fa"/><stop offset="0.71" stop-color="#0e9ef7"/><stop offset="0.84" stop-color="#0e77f5"/><stop offset="0.99" stop-color="#004482"/></linearGradient><linearGradient id="Degradado_sin_nombre_22" x1="232.56" y1="602.17" x2="314.99" y2="605.11" gradientTransform="matrix(1, 0, 0, -1, -18.57, 794.06)" gradientUnits="userSpaceOnUse"><stop offset="0" stop-color="#878787"/><stop offset="0.34" stop-color="#bdbdbd"/><stop offset="0.36" stop-color="#c4c4c4"/><stop offset="0.48" stop-color="#dedede"/><stop offset="0.6" stop-color="#f0f0f0"/><stop offset="0.73" stop-color="#fbfbfb"/><stop offset="0.86" stop-color="#fff"/></linearGradient><linearGradient id="Degradado_sin_nombre_20" x1="188.67" y1="311.29" x2="296.46" y2="330.61" gradientTransform="matrix(1, 0, 0, -1, -18.57, 794.06)" gradientUnits="userSpaceOnUse"><stop offset="0.01" stop-color="gray"/><stop offset="0.1" stop-color="#a0a0a0"/><stop offset="0.35" stop-color="#bdbdbd"/><stop offset="0.42" stop-color="#d0d0d0"/><stop offset="0.52" stop-color="#e5e5e5"/><stop offset="0.64" stop-color="#f4f4f4"/><stop offset="0.78" stop-color="#fcfcfc"/><stop offset="1" stop-color="#fff"/></linearGradient></defs><path class="cls-1" d="M737.56,351a219.89,219.89,0,0,0,0-24.89c-.08-1.16-.16-2.31-.25-3.44q-.52-8.81-1.64-17.54l-.12-1.35c-.14-1-.31-2.07-.48-3.17-.6-4.2-1.09-7.44-1.67-10.56a226.58,226.58,0,0,0-9.57-36.38c-.52-1.54-1.05-3.09-1.6-4.62-1.72-5-3.16-8.7-5.14-13.2-.15-.38-.31-.76-.47-1.13l-1.13-2.78a208.84,208.84,0,0,0-10-20.54c-1.21-2.31-2.65-4.81-4.15-7.34l0,0-.16-.29q-.35-.57-.69-1.17c-.19-.31-.37-.62-.55-.93q-2.26-3.8-4.88-8c-.09-.17-.19-.33-.29-.49l-.15-.22c-.32-.5-.63-1-1-1.51-1.11-1.75-2.33-3.57-3.63-5.43-2.39-3.6-4.78-6.82-6.92-9.71l2.25,3.24C680,172.36,674,165,669.1,159h.06q-3.24-3.69-6.64-7.27c-3.15-3.42-5.62-6-8.46-8.71-.79-.79-1.57-1.56-2.34-2.29l-1.09-1.11-1-.88-1.41-1.27-2.71-2.49q-2.43-2.25-5-4.5-.51-.47-1-.9l-.35-.32.16.15-.51-.44-.84-.76h0l-3-2.54-1.07-.85c-3.06-2.53-6.26-5.08-9.61-7.62l-.18-.14.09.07q-2.54-1.92-5.21-3.86c-1.53-1.13-3.08-2.23-4.52-3.22l-.42-.29h0l-.14-.09c-1.19-.83-2.39-1.65-3.62-2.48l-1-.69.41.29-3.57-2.36-1.73-1.12L604,103l-.46-.28c-3.27-2.09-6-3.77-8.64-5.33l0,0-1.66-1c-2.06-1.22-4.4-2.55-6.34-3.6-3.36-1.87-6-3.27-8.09-4.35l0,0c-1-.53-2.38-1.22-3.37-1.72.7.35,1.36.7,2,1-2.15-1.13-3.43-1.77-5.86-2.92l-.07,0c-2.34-1.14-4.7-2.26-7.06-3.35h0l-.83-.38-1.22-.54q-2.66-1.2-5.33-2.35l-.13-.06.1,0c-2-.85-4-1.68-6-2.5h0l-2.34-.93-2.31-.91-1.64-.65-1.48-.55-.15-.06-4.9-1.83,1.25.48c-1.63-.6-3.28-1.18-4.92-1.75l-.62-.21c-.73-.25-1.46-.51-2.2-.75l-.34-.13-.75-.24c-1.88-.62-3.76-1.24-5.66-1.83l-.33-.11-1-.31c-1.56-.5-3-.93-4.86-1.46L517.66,64l-1.94-.54c-1.08-.31-2.16-.61-3.25-.9L510.38,62l-.92-.24-2-.53c-1.39-.36-2.55-.65-4.26-1l-.83-.21-1.16-.26-1.83-.42-.8-.19-4.51-1h0l-.54-.11c-2.52-.54-4.75-1-6.32-1.28-3.54-.68-6.85-1.25-10-1.75l-.19,0-.22,0q-5.53-.89-11.1-1.6h0l-1.59-.2c-3.16-.43-7.13-.82-10.38-1.12l-1-.09-1.2-.11h-.14l-.61-.06-.74-.05-1.38-.12c-3.28-.27-6.68-.5-10.19-.67l1.23.08c-2.93-.15-5.83-.28-8.71-.36l-2-.07-.59,0h-.44c-4.86-.17-11.31-.14-16.2,0a353,353,0,0,0-54.85,5.78l-.26,0-.09,0a291.81,291.81,0,0,0-31.71,7.44l-.6.18a335.93,335.93,0,0,0-46,16.7l-1.53.7-.7.32a320.7,320.7,0,0,0-42.33,23l-1.56,1a320.87,320.87,0,0,0-40,30.67l-.19.16a239.11,239.11,0,0,0-21.74,21.72q-4.65,5.13-9,10.47A231.72,231.72,0,0,0,142.44,194a.83.83,0,0,0-.08.12c-.67,1.11-1.36,2.24-2.06,3.41-.6,1-1.2,2-1.8,3l.76-1.39L130,214.86l.11-.26-2.44,5-1.6,3.26c-1.78,3.39-3.46,6.72-5,9.89l1-2.31-1.71,3.79-1.14,2.44-.09.22A249.76,249.76,0,0,0,105.9,274c0,.05,0,.09,0,.14a264.89,264.89,0,0,0-8.46,45.26c-.1.94-.19,1.86-.27,2.77-.12,1.4-.23,2.86-.32,4.35a263.06,263.06,0,0,0,.52,43.39c0,.1,0,.21,0,.31.91,13.55,3.86,28.17,7.24,41q.81,3.18,1.71,6.34,2.4,8.67,5.45,17.11c1.4,4,2.67,7.2,3.66,9.47h0v0c1.63,3.71,3.45,7.82,5.4,12l3.42,7.59,1.55,2.85c2.84,5.73,5.8,11.29,8.69,16h0c2.18,3.73,4.89,7.93,7.73,12.12,4,6,7.49,10.9,10.67,15.08,3.5,4.7,8.33,10.39,12,14.7l0,.05C188,551.5,254,615.71,368.52,630.26c44.6,5.56,79.69,1.37,89.38,0l3.58-.54q13-1.8,25.9-4.59a323.63,323.63,0,0,0,41.26-11.59l.56-.18,1.78-.65c1.38-.49,2.77-1,4.19-1.53l1.4-.53L538,610l2.44-.94,1-.39.33-.13c4.71-1.85,9.58-3.87,14.66-6.08a326,326,0,0,0,44.66-24.23c2.91-1.89,6-4,9.13-6.27q4.15-2.89,8.21-5.91l2-1.41c1.78-1.36,3.7-2.89,5.66-4.49q6.42-5.07,12.59-10.47l2.45-2c7.82-6.55,21.46-20.4,34.14-36.06l.32-.36.2-.28,1.2-1.5q5.15-6.33,9.79-13c1.68-2.39,3.29-4.79,4.81-7.16,1.79-2.81,3.63-5.86,5.47-9.06,2.43-4.08,4.81-8.17,6.92-11.64L710.26,456c.76-1.53,1.52-3,2.26-4.59l2.27-4.62c.24-.54.48-1.1.72-1.67.06-.14.13-.28.2-.42a150.72,150.72,0,0,0,8.56-22.55c.16-.57.32-1.15.49-1.74,1.38-4.38,2.76-9.52,4.06-14.32l1.89-6.7c.29-1.18.57-2.44.84-3.74q2-8.75,3.29-17.65c.21-1.27.4-2.52.57-3.73.94-6.79,1.69-14.7,2.12-22.66v-.14C737.55,351.29,737.55,351.14,737.56,351Z" transform="translate(-8.08 -50.37)"/><path class="cls-2" d="M376.8,290.45c11.09,1.05,16.36-4.07,16.36-4.07A27.24,27.24,0,0,1,376.8,290.45Z" transform="translate(-8.08 -50.37)"/><path class="cls-2" d="M351.75,274.59s-.41,5.4,8.52,11.21c0,0-52.75,22.42-60.46,27.06l62.69-26.48c-19.88-15.08-2.23-26.87-2.23-26.87S350.94,262.61,351.75,274.59Z" transform="translate(-8.08 -50.37)"/><path class="cls-3" d="M725.19,588.92c16-18.61,27.59-52,35.73-85.19a321.57,321.57,0,0,1-35.73,85.19Z" transform="translate(-8.08 -50.37)"/><path class="cls-3" d="M416.41,766.28c18.89-.83,29.62-3,29.62-3,61.32-6.65,112.65-28,153.85-53.64C528.3,751.11,461.7,760.52,461.7,760.52A331.85,331.85,0,0,1,416.41,766.28Z" transform="translate(-8.08 -50.37)"/><path class="cls-3" d="M764.68,487.32a777.67,777.67,0,0,0,12.72-80.74l-10.58,69Q765.86,481.56,764.68,487.32Z" transform="translate(-8.08 -50.37)"/><path class="cls-3" d="M51.31,553.42c17.5,39.82,45.26,73.76,72.37,100.21C88.81,617.42,65.08,579.13,51.31,553.42Z" transform="translate(-8.08 -50.37)"/><path class="cls-3" d="M204.44,716.64Z" transform="translate(-8.08 -50.37)"/><path class="cls-3" d="M32.16,363.08c-21.66,41.3-12.87,96.42-1,136.71C14.34,422.76,23.48,382.23,32.16,363.08Z" transform="translate(-8.08 -50.37)"/><path class="cls-4" d="M369.74,286.93a36.85,36.85,0,0,1-9.4-1.9h0c-23.5,14.38-64.57,44.24-64.57,44.24h0c3,6.73,5.92,12.86,5.92,12.86s32.24-31.46,51.82-37.44c0,0,29.86-15.19,33.77-22.25C387.3,282.43,381.64,288.09,369.74,286.93Z" transform="translate(-8.08 -50.37)"/><path class="cls-5" d="M376.8,290.45a43,43,0,0,1-11.93-3.07l3.16,1.35A35,35,0,0,0,376.8,290.45Z" transform="translate(-8.08 -50.37)"/><path class="cls-6" d="M131.15,201.77a218.14,218.14,0,0,1-17.86-30.49c-9.89-19-20-43-18.77-59.95v0S73.45,135,60.34,172.39c-5.26,19.75-9,45.23-9,77.84.37,3,.82,6,1.37,9C53.49,263.74,93.73,216.4,131.15,201.77Z" transform="translate(-8.08 -50.37)"/><path class="cls-7" d="M264.13,235.13c1.68,24.79,13.67,88.17,13.67,88.17,41.1-9.2,62.33-39,103.43-48.18C381.23,275.12,306.91,250.71,264.13,235.13Z" transform="translate(-8.08 -50.37)"/><path class="cls-8" d="M370.83,281.93h0a38,38,0,0,1-7.05-3.44s-76,36.73-77.28,39.41c-.72,1.41,3.39,12.42,7.39,22.43h0S342.85,300.91,370.83,281.93Z" transform="translate(-8.08 -50.37)"/><path class="cls-3" d="M204.45,716.64q5.58,3.11,11.38,6c5.78,2.9,88.43,50.13,200.58,43.63C375.45,768.1,296.08,763.59,204.45,716.64Z" transform="translate(-8.08 -50.37)"/><path class="cls-3" d="M32.16,363.08a93.85,93.85,0,0,1,9.49-14.65S37,352.45,32.16,363.08Z" transform="translate(-8.08 -50.37)"/><path d="M362.5,286.38l2.35,1a42.92,42.92,0,0,0,11.95,3.07,27.24,27.24,0,0,0,16.36-4.07s14.22-6.32,6.8-22.1c0,0-13.91-19.27-39.67-4.77C360.29,259.51,342.62,271.3,362.5,286.38Z" transform="translate(-8.08 -50.37)"/><path class="cls-9" d="M109.12,207.34A204.68,204.68,0,0,1,98,181.24C91.86,165,85.65,144.41,86.55,129.78v0s-13.61,20.57-22.26,52.88c-3.51,17-6.1,39-6.39,67.09q.32,3.83.79,7.72C59.18,261.33,85.18,220.24,109.12,207.34Z" transform="translate(-8.08 -50.37)"/><path class="cls-3" d="M123.68,653.63c22.28,23.13,49.1,45.39,80.75,63C203.92,716.34,164.54,693.49,123.68,653.63Z" transform="translate(-8.08 -50.37)"/><path class="cls-3" d="M36.68,522.94a328.94,328.94,0,0,0,14.63,30.47,369.52,369.52,0,0,1-20.19-53.64Q33.53,510.86,36.68,522.94Z" transform="translate(-8.08 -50.37)"/><path class="cls-2" d="M599.89,709.62a377.49,377.49,0,0,0,57-40.32s36.57-27.4,68.32-80.38C725.06,589.11,683,658,599.89,709.62Z" transform="translate(-8.08 -50.37)"/><path class="cls-3" d="M764.68,487.32c-1.17,5.42-2.42,10.91-3.77,16.41Q763,495.71,764.68,487.32Z" transform="translate(-8.08 -50.37)"/><polygon class="cls-10" points="249.2 332.29 249.2 332.29 249.2 332.29 249.2 332.29"/><path class="cls-11" d="M249.7,389.79c1-2.5,3.21-5.19,7.58-7.13A10.61,10.61,0,0,0,249.7,389.79Z" transform="translate(-8.08 -50.37)"/><path class="cls-12" d="M792,305.14l-16.23,43.29L764.39,345s.37-87.84-18.82-131c11.37,40.44,23.08,108.29,1.37,175,0,0-16-72.54-33.37-60.82-2.13,3.34-3.55,3.6-3.55,3.6a14.8,14.8,0,0,1,3.55-3.6c4.95-7.76,13.74-32.14,17.65-108.49l-8.63,5s-3.25-24-31.24-52.19c0,0-20.29-31.31-63.71-45.62,0,0-56.39-27.24-103.86-26.56l-.29,1.45s43.29,13.9,83.87,42.12L573.62,151C613.51,151.22,687,164.74,727,254.11c0,0-33.17,9.29-28.88,31,.2.83.29,1.29.29,1.29-.11-.44-.21-.87-.29-1.29a1.16,1.16,0,0,1,0-.18C694,263.35,727,254.11,727,254.11,687,164.74,613.49,151.22,573.61,151l-1.14.24-26.29,1.94h-.08l.3.06c4.56,1.27,64.94,18.65,113.32,61.77,0,0,17,20.49,23.93,36.34l13.79,42.92-1.62,18.57-12.58-8.51-19.07-21.26,1.63,7.34-1.63-.77s12.58,51.42,4.06,149.61L648.76,420S641.45,401,639.42,401c0,0-.41,48.69-4,56.45,0,0-14.61,62.62-36.52,96.26,0,0,6.09-17-4.47-8.9,0,0-2.43-3.09,2.85-47.93,0,0,1.62-6.19-11.77,13.91,0,0-47.07,79.64-104.28,87.37,0,0-67.66,19.37-150-18.52l-35.05-21.52s-82.31-34.59-129-108.42c0,0-15.41-24.35,1.63-47.17,0,0,13.1-19.68,66-19.89h22.53a30.22,30.22,0,0,1,7.63-2.14s30-.78,66.95,12.75c0,0-36.52-68-49.1-86.21,0,0-1.62-3.86-6.09-13.53,0,0-7.71-7.73-3.24-30.92,0,0,4.06-77.71,54-118.69,0,0-29.21-14.3-100.62,42.14,0,0-41-21.26-94.93,5.79h0s-28.64,13-50.52,34.76-82.57,88.57-72,121.82c0,0,15.82-14.31,20.69-12l11.66,12a93.85,93.85,0,0,0-9.49,14.65c-8.66,19.13-17.82,59.68-1,136.71a369.35,369.35,0,0,0,20.2,53.64c13.76,25.71,37.49,64,72.36,100.2,40.85,39.87,80.25,62.73,80.76,63h0c91.6,47,171,51.46,212,49.64a331.81,331.81,0,0,0,45.29-5.74s66.6-9.42,138.19-50.92C683,658,725.08,589.11,725.19,588.92a321.24,321.24,0,0,0,35.73-85.19c1.35-5.5,2.61-11,3.77-16.41q1.17-5.77,2.14-11.7l10.57-69h0l.38-2.48S797.66,336.06,792,305.14Zm-611.1-72.69.12-.36.31,0A3.55,3.55,0,0,0,180.88,232.45ZM53.19,415.92c0-51.46,15.29-93.09,16.49-96.28C68.48,322.83,53.21,364.46,53.19,415.92ZM197,601a9.37,9.37,0,0,0-.31.94A9.37,9.37,0,0,1,197,601Zm.14,6.08h0a7.75,7.75,0,0,1-.5-1.39A7.75,7.75,0,0,0,197.16,607.06Zm97.38,52.57c-56.32-5-128.75-47-131-48.29,2.25,1.31,74.7,43.34,131,48.29,0,0,101.43,14.69,150.53,2.32C396,674.33,294.54,659.63,294.54,659.63Zm396-150.16h0s-.12.53-.37,1.55C690.45,510,690.57,509.47,690.57,509.47ZM562.73,696.36l1.14-.59-1.14.59Zm.48-.06c6.14-.77,71.72-11.2,155.7-112.1C634.93,685.1,569.35,695.53,563.21,696.3Z" transform="translate(-8.08 -50.37)"/><path class="cls-3" d="M249.1,396.75a16.73,16.73,0,0,1,.6-7A11.6,11.6,0,0,0,249.1,396.75Z" transform="translate(-8.08 -50.37)"/><path class="cls-5" d="M362.5,286.38c.8.36,1.58.69,2.35,1Z" transform="translate(-8.08 -50.37)"/><path class="cls-5" d="M364.85,287.38c-.77-.31-1.55-.64-2.35-1a31.05,31.05,0,0,0,5.51,2.35Z" transform="translate(-8.08 -50.37)"/><path class="cls-3" d="M745.57,214c-6.47-23-12.83-37.2-12.83-37.2l10.14,31.7C743.82,210.22,744.72,212.06,745.57,214Z" transform="translate(-8.08 -50.37)"/><path class="cls-3" d="M732.33,200.75c-.09-.13-.18-.27-.26-.41q-.37,10.2-.83,19.36l.71-.41Z" transform="translate(-8.08 -50.37)"/><path class="cls-13" d="M648.58,195.38c20.2-11.75,32.62.91,56,14.64-42.89-52-83-68.26-121.67-79.69-2-.29-4-.5-5.86-.62l-31-8c6.64,4.4,22,10,31,15.44C577.07,137.2,625.36,158.93,648.58,195.38Z" transform="translate(-8.08 -50.37)"/><path class="cls-3" d="M710,331.8s1.42-.25,3.55-3.6A15,15,0,0,0,710,331.8Z" transform="translate(-8.08 -50.37)"/><path class="cls-14" d="M746.46,392.73C769,322.91,756.85,252,745,209.63c-.89-2-1.82-3.95-2.79-5.76l-10.54-33.16q-.27,13-.69,24.66a3.87,3.87,0,0,0,.27.43l-.43,19.42-.73.44c-4.06,79.85-13.2,105.37-18.34,113.49C729.84,316.85,746.46,392.73,746.46,392.73Z" transform="translate(-8.08 -50.37)"/><path class="cls-3" d="M573.62,151c-16.7-.08-27.51,2.17-27.51,2.17l26.38-1.93Z" transform="translate(-8.08 -50.37)"/><path class="cls-3" d="M698.15,285.09c.08.41.17.85.29,1.29C698.44,286.38,698.35,285.93,698.15,285.09Z" transform="translate(-8.08 -50.37)"/><path class="cls-15" d="M68.09,317.52S25.49,401,71.34,508.11c0,0,52.34,115.21,205.71,146.9,0,0,114,25.9,232.49-14.3,0,0,99-38.66,179.74-134.52,0,0-42.6,207.21-221.94,225,0,0,128.75,3.09,213.07-107.09,0,0,91.7-79.25,76.45-189.63l18.37-29.92S755.42,547.24,725.4,582.4c0,0-83.29,119.9-188.53,153.68,0,0-159.69,80.9-354-33.9,0,0-121.7-81.42-151.11-193.21,0,0-32.06-107.54,7.81-163.21l-11.66-12Z" transform="translate(-8.08 -50.37)"/><path class="cls-16" d="M308,145.39s-59.53,20.21-83.46,50.54c4.05,2.55,27.79,12.53,37.46,37.39-.33-1.32-.64-33.95,46-87.93" transform="translate(-8.08 -50.37)"/><path class="cls-17" d="M256.15,380h-22.4c-52.6.21-65.63,19.78-65.63,19.78-16.94,22.68-1.61,46.9-1.61,46.9,46.4,73.44,128.24,107.81,128.24,107.81l2-1.53C289.11,552.18,269,517,269,517c-40.53-73.1-21-123-21-123a11.66,11.66,0,0,1,.6-6.93A10.57,10.57,0,0,1,256.15,380Z" transform="translate(-8.08 -50.37)"/></svg>