<?xml version="1.0" encoding="utf-8"?>
<!-- Generator: Adobe Illustrator 25.0.1, SVG Export Plug-In . SVG Version: 6.00 Build 0)  -->
<svg version="1.1" id="Capa_1" xmlns="http://www.w3.org/2000/svg" xmlns:xlink="http://www.w3.org/1999/xlink" x="0px" y="0px"
	 viewBox="0 0 920 324.3" style="enable-background:new 0 0 920 324.3;" xml:space="preserve">
<style type="text/css">
	.st0{enable-background:new    ;}
	.st1{fill:#4D4D4D;}
	.st2{fill:#999999;}
	.st3{fill:url(#SVGID_1_);}
	.st4{fill:none;}
	.st5{fill:none;stroke:#034A9E;stroke-miterlimit:10;}
	.st6{fill:url(#SVGID_2_);}
	.st7{fill:none;stroke:#000000;stroke-miterlimit:10;}
	.st8{fill:url(#SVGID_3_);}
	.st9{fill:url(#SVGID_4_);}
	.st10{fill:#FFFFFF;}
	.st11{fill:url(#SVGID_5_);}
	.st12{fill:url(#SVGID_6_);}
	.st13{fill:url(#SVGID_7_);}
	.st14{fill:url(#SVGID_8_);}
	.st15{fill:url(#SVGID_9_);}
	.st16{fill:url(#SVGID_10_);}
	.st17{fill:url(#SVGID_11_);}
	.st18{fill:url(#SVGID_12_);}
	.st19{fill:url(#SVGID_13_);}
</style>
<g class="st0">
	<path class="st1" d="M472.7,200.3h-8.5l-25.4-73.4l-24.7,73.4h-8.5L367.4,82.4H389l21.8,70.2l23.6-70.2h9.1l23.7,70.2l21.8-70.2
		h21.5L472.7,200.3z"/>
</g>
<g class="st0">
	<path class="st1" d="M594.4,162.3h-60.7c0.4,6.8,2.7,12,7,15.8c4.3,3.8,10.1,5.6,17.3,5.6c9.1,0,15.9-2.4,20.6-7.1l7.7,15.2
		c-7,5.7-17.4,8.5-31.3,8.5c-13,0-23.2-3.8-30.8-11.4c-7.5-7.6-11.3-18.2-11.3-31.8c0-13.4,4.1-24.2,12.4-32.6
		c8.3-8.3,18.2-12.5,29.8-12.5c12.3,0,22.2,3.7,29.7,11c7.5,7.4,11.2,16.7,11.2,28.1C596.1,153.7,595.5,157.4,594.4,162.3z
		 M534.4,147.4h41.8c-1.4-12.4-8.3-18.7-20.6-18.7C544.2,128.7,537.2,134.9,534.4,147.4z"/>
	<path class="st1" d="M626,194l-4.4,6.3h-11.2V82l19.8-4.8v39.7c5.3-3.2,11.1-4.8,17.3-4.8c12.4,0,22.5,3.9,30.1,11.8
		c7.6,7.9,11.4,17.9,11.4,30.2c0,14.2-3.8,25.5-11.5,33.8c-7.7,8.3-18.1,12.4-31.2,12.4C638.5,200.3,631.7,198.2,626,194z
		 M630.2,133.9v44.4c2.9,3.4,6.9,5.2,11.8,5.2c9.6,0,16.4-2.3,20.4-6.8c4-4.6,6-11.8,6-21.8c0-17.3-8.3-25.9-24.8-25.9
		C637.8,128.9,633.3,130.6,630.2,133.9z"/>
	<path class="st1" d="M755.1,100.7v98h-20.6v-98h-37V82.4h96.3v18.3H755.1z"/>
	<path class="st1" d="M807.6,198.7V82.4h20.6v116.3H807.6z"/>
	<path class="st1" d="M846.9,192.3l7.6-18.5c8.2,5.7,16.2,8.6,24.1,8.6c12.1,0,18.2-4.2,18.2-12.7c0-4-1.4-7.8-4.3-11.4
		c-2.9-3.6-8.7-7.6-17.7-12.1s-14.9-8.2-18-11c-3.1-2.9-5.5-6.3-7.1-10.3c-1.7-4-2.5-8.4-2.5-13.2c0-9,3.3-16.5,9.9-22.4
		c6.6-5.9,15-8.9,25.4-8.9c13.4,0,23.3,2.5,29.6,7.5l-6.3,17.8c-7.3-5.2-14.9-7.8-22.9-7.8c-4.8,0-8.5,1.3-11.1,3.8
		c-2.6,2.5-3.9,5.8-3.9,9.8c0,6.7,7.4,13.6,22.2,20.8c7.8,3.8,13.4,7.3,16.8,10.5s6.1,6.9,7.9,11.2c1.8,4.3,2.7,9,2.7,14.3
		c0,9.4-3.7,17.2-11.2,23.3c-7.4,6.1-17.4,9.1-29.9,9.1C865.5,200.7,855.7,197.9,846.9,192.3z"/>
</g>
<g class="st0">
	<path class="st2" d="M412.5,259.3l-2.7-6.7h-12.9l-2.6,6.7h-7.4l15-33.7h2.9l15.1,33.7H412.5z M403.3,235.8l-4.5,12.3h9
		L403.3,235.8z"/>
	<path class="st2" d="M432.4,226l6.4-1.4v27.3c0,3,1,4.8,3,5.3c-1,1.7-2.7,2.5-5.1,2.5c-2.9,0-4.4-1.8-4.4-5.4V226z"/>
	<path class="st2" d="M452.8,247.1c0-3.7,1.2-6.7,3.6-9c2.4-2.3,5.6-3.5,9.6-3.5c4.2,0,7.4,1.1,9.7,3.4c2.3,2.2,3.5,5.3,3.5,9.2
		c0,3.9-1.2,6.9-3.5,9.2c-2.4,2.3-5.6,3.4-9.6,3.4c-4.2,0-7.4-1.2-9.7-3.5C454,254,452.8,251,452.8,247.1z M459.5,247.1
		c0,5.4,2.2,8,6.5,8c2,0,3.6-0.7,4.8-2.1c1.2-1.4,1.8-3.4,1.8-5.9c0-5.3-2.2-7.9-6.5-7.9c-2,0-3.6,0.7-4.8,2.1
		C460.1,242.7,459.5,244.6,459.5,247.1z"/>
	<path class="st2" d="M488.4,268.8v-5.1c3.4,0,5.7-0.4,6.9-1.1c1.2-0.7,1.8-2,1.8-3.9v-19.1h-4.9V235h11.3v23.7c0,3.5-1.2,6-3.7,7.7
		S493.6,268.8,488.4,268.8z M500.1,225.6c1,0,1.9,0.3,2.6,1c0.7,0.6,1.1,1.4,1.1,2.3c0,0.9-0.4,1.7-1.1,2.3c-0.7,0.6-1.6,1-2.6,1
		c-1,0-1.9-0.3-2.6-1c-0.7-0.6-1.1-1.4-1.1-2.3c0-0.9,0.4-1.7,1.1-2.3C498.2,226,499.1,225.6,500.1,225.6z"/>
	<path class="st2" d="M534.5,256.9c-0.6,0.8-1.6,1.5-3,2.1c-1.4,0.5-2.9,0.8-4.5,0.8c-3,0-5.3-0.7-7-2c-1.7-1.3-2.5-3.2-2.5-5.6
		c0-2.8,1.2-5,3.6-6.6c2.4-1.6,5.8-2.4,10.2-2.4c0.8,0,1.6,0.1,2.7,0.3c0-2.9-2-4.3-6.1-4.3c-2.4,0-4.4,0.4-6,1.1l-1.4-4.4
		c2.2-0.9,4.8-1.4,7.9-1.4c4.2,0,7.3,0.8,9.2,2.5c1.9,1.7,2.9,4.9,2.9,9.6v5.2c0,3.2,0.7,5.3,2.2,6.1c-0.5,0.8-1.1,1.3-1.8,1.5
		s-1.4,0.3-2.2,0.3c-0.9,0-1.7-0.3-2.5-0.9C535.3,258.3,534.8,257.6,534.5,256.9z M533.9,247.9c-1.1-0.2-1.9-0.3-2.5-0.3
		c-5.1,0-7.6,1.5-7.6,4.4c0,2.2,1.4,3.3,4.3,3.3c3.8,0,5.8-1.7,5.8-5.1V247.9z"/>
	<path class="st2" d="M586.9,259.3v-15.2c0-3.2-1.6-4.8-4.8-4.8c-1,0-1.9,0.2-2.8,0.7c-0.9,0.5-1.5,1.1-1.9,1.7v17.5H571v-16.1
		c0-1.2-0.4-2.1-1.3-2.8c-0.8-0.7-2-1.1-3.5-1.1c-0.8,0-1.7,0.3-2.6,0.8c-0.9,0.5-1.6,1.1-2.1,1.7v17.5h-6.4V235h4.4l1.3,2.1
		c1.8-1.7,4.1-2.6,6.9-2.6c3.6,0,6.4,0.9,8.2,2.6c0.8-0.8,1.9-1.4,3.4-1.9c1.4-0.5,2.9-0.7,4.3-0.7c3.1,0,5.4,0.8,7.1,2.3
		c1.7,1.5,2.5,3.7,2.5,6.4v16H586.9z"/>
	<path class="st2" d="M609.8,259.3v-19.6h-3.5V235h10v24.3H609.8z M613.1,225.6c1,0,1.9,0.3,2.6,1c0.7,0.6,1.1,1.4,1.1,2.3
		c0,0.9-0.4,1.7-1.1,2.3c-0.7,0.6-1.6,1-2.6,1c-1,0-1.9-0.3-2.6-1c-0.7-0.6-1.1-1.4-1.1-2.3c0-0.9,0.4-1.7,1.1-2.3
		C611.2,226,612,225.6,613.1,225.6z"/>
	<path class="st2" d="M656.1,248.9h-19.6c0.1,1.9,0.9,3.4,2.3,4.5c1.4,1.1,3.2,1.6,5.6,1.6c2.9,0,5.1-0.7,6.7-2l2.5,4.3
		c-2.3,1.6-5.6,2.4-10.1,2.4c-4.2,0-7.5-1.1-9.9-3.3c-2.4-2.2-3.7-5.2-3.7-9.1c0-3.8,1.3-6.9,4-9.3c2.7-2.4,5.9-3.6,9.6-3.6
		c4,0,7.2,1.1,9.6,3.2c2.4,2.1,3.6,4.8,3.6,8C656.6,246.5,656.4,247.5,656.1,248.9z M636.7,244.7h13.5c-0.4-3.6-2.7-5.3-6.7-5.3
		C639.8,239.3,637.6,241.1,636.7,244.7z"/>
	<path class="st2" d="M687.2,259.3v-14c0-2.1-0.5-3.6-1.3-4.5c-0.9-1-2.4-1.4-4.4-1.4c-0.9,0-1.9,0.2-3,0.7
		c-1.1,0.5-1.9,1.1-2.5,1.7v17.5h-6.4V235h4.6l1.2,2.3c1.7-1.8,4.3-2.7,7.7-2.7c3.3,0,5.8,0.9,7.7,2.6c1.9,1.7,2.8,4.1,2.8,7.2v14.9
		H687.2z"/>
	<path class="st2" d="M709.4,239.6h-3.2V235h3.2v-4.9l6.4-2.1v7h7.5v4.6h-7.5v10.6c0,1.7,0.3,3,0.9,3.7c0.6,0.7,1.7,1.1,3.2,1.1
		c1.5,0,3-0.4,4.3-1.1v5.2c-1.5,0.5-3.6,0.7-6.4,0.7c-2.7,0-4.8-0.7-6.3-2.1c-1.5-1.4-2.2-3.3-2.2-5.8V239.6z"/>
	<path class="st2" d="M735.3,247.1c0-3.7,1.2-6.7,3.6-9c2.4-2.3,5.6-3.5,9.6-3.5c4.2,0,7.4,1.1,9.7,3.4c2.3,2.2,3.5,5.3,3.5,9.2
		c0,3.9-1.2,6.9-3.5,9.2c-2.3,2.3-5.6,3.4-9.6,3.4c-4.2,0-7.4-1.2-9.7-3.5C736.5,254,735.3,251,735.3,247.1z M742,247.1
		c0,5.4,2.2,8,6.5,8c2,0,3.6-0.7,4.8-2.1c1.2-1.4,1.8-3.4,1.8-5.9c0-5.3-2.2-7.9-6.5-7.9c-2,0-3.6,0.7-4.8,2.1
		C742.6,242.7,742,244.6,742,247.1z"/>
	<path class="st2" d="M825.3,259.8H823l-7.5-14.9l-7.5,14.9h-2.4L795.2,235h6.7l5.5,14.5l6.7-14.5h2.3l6.9,14.6l5.9-14.6h6.3
		L825.3,259.8z"/>
	<path class="st2" d="M871.8,248.9h-19.6c0.1,1.9,0.9,3.4,2.3,4.5c1.4,1.1,3.2,1.6,5.6,1.6c2.9,0,5.1-0.7,6.7-2l2.5,4.3
		c-2.3,1.6-5.6,2.4-10.1,2.4c-4.2,0-7.5-1.1-9.9-3.3c-2.4-2.2-3.7-5.2-3.7-9.1c0-3.8,1.3-6.9,4-9.3c2.7-2.4,5.9-3.6,9.6-3.6
		c4,0,7.2,1.1,9.6,3.2c2.4,2.1,3.6,4.8,3.6,8C872.3,246.5,872.2,247.5,871.8,248.9z M852.4,244.7h13.5c-0.4-3.6-2.7-5.3-6.7-5.3
		C855.6,239.3,853.3,241.1,852.4,244.7z"/>
	<path class="st2" d="M889.9,258l-1.4,1.8h-3.6V226l6.4-1.4V236c1.7-0.9,3.6-1.4,5.6-1.4c4,0,7.2,1.1,9.7,3.4
		c2.5,2.2,3.7,5.1,3.7,8.6c0,4.1-1.2,7.3-3.7,9.6c-2.5,2.4-5.8,3.6-10.1,3.6C893.9,259.8,891.7,259.2,889.9,258z M891.2,240.8v12.7
		c0.9,1,2.2,1.5,3.8,1.5c3.1,0,5.3-0.6,6.6-2c1.3-1.3,1.9-3.4,1.9-6.2c0-4.9-2.7-7.4-8-7.4C893.7,239.4,892.2,239.9,891.2,240.8z"/>
</g>
<linearGradient id="SVGID_1_" gradientUnits="userSpaceOnUse" x1="204.4582" y1="1214.1542" x2="204.4582" y2="950.72" gradientTransform="matrix(1 0 0 1 -18.74 -950.72)">
	<stop  offset="0" style="stop-color:#007C8D"/>
	<stop  offset="9.000000e-02" style="stop-color:#478EA3"/>
	<stop  offset="0.33" style="stop-color:#009BD6"/>
	<stop  offset="0.45" style="stop-color:#94CBDD"/>
	<stop  offset="0.45" style="stop-color:#99CAD6"/>
	<stop  offset="0.45" style="stop-color:#A9C9C3"/>
	<stop  offset="0.45" style="stop-color:#C1C6A4"/>
	<stop  offset="0.45" style="stop-color:#E4C279"/>
	<stop  offset="0.46" style="stop-color:#F7C061"/>
	<stop  offset="0.57" style="stop-color:#ED8544"/>
	<stop  offset="0.64" style="stop-color:#EC7E49"/>
	<stop  offset="0.74" style="stop-color:#EA6B56"/>
	<stop  offset="0.75" style="stop-color:#EA6958"/>
	<stop  offset="0.88" style="stop-color:#8E4C6B"/>
	<stop  offset="1" style="stop-color:#2C3873"/>
</linearGradient>
<path class="st3" d="M330.8,135.6c0.2-3.8,0.2-7.5,0-11.3c0-0.5,0-1,0-1.6c-0.1-2.7-0.4-5.3-0.7-8v-0.6c0-0.4-0.1-0.9-0.2-1.4
	c-0.3-1.9-0.5-3.4-0.8-4.9c-1-5.6-2.4-11.1-4.3-16.5l-0.7-2.1c-0.8-2.3-1.4-3.9-2.4-6c0-0.2-0.1-0.4-0.2-0.5l-0.5-1.3
	c-1.3-3.2-2.8-6.3-4.5-9.3c-0.6-1-1.2-2.2-1.9-3.3l0,0v-0.1c-0.1-0.2-0.2-0.3-0.3-0.5l-0.3-0.4c-0.7-1.1-1.4-2.4-2.2-3.6
	c0-0.1,0-0.1,0-0.2l0,0c-0.1-0.2-0.3-0.5-0.4-0.7c-0.5-0.8-1.1-1.6-1.7-2.4c-1.1-1.6-2.2-3.1-3.1-4.4l1,1.5
	c-2.4-3.3-5.1-6.6-7.3-9.3l0,0c-1-1.1-2-2.2-3-3.3c-1.4-1.6-2.4-2.7-3.8-3.9l-1.1-1l-0.5-0.5l-0.5-0.4l-0.6-0.6l-1.2-1.1l-2.3-2
	l-0.4-0.4l-0.2-0.1l0,0l-0.2-0.2l-0.4-0.4l0,0l-1.4-1.1l-0.5-0.4c-1.4-1.1-2.8-2.3-4.3-3.4l0,0l0,0l-2.4-1.7c-0.7-0.5-1.4-1-2-1.5
	l-0.2-0.1l0,0l-1.6-1.1l-0.5-0.3l0.2,0.1l-1.6-1.1l-0.8-0.5l-0.2-0.1l-0.2-0.1c-1.5-0.9-2.7-1.7-3.9-2.4l0,0l-0.8-0.5l-2.9-1.6
	c-1.5-0.8-2.7-1.5-3.7-2l0,0l-1.5-0.8l0.9,0.4c-1-0.5-1.6-0.8-2.6-1.3l0,0l-3.2-1.5l0,0l-0.4-0.2l-0.6-0.2l-2.4-1l0,0l0,0l-3.1-1.3
	l0,0l-1.1-0.4l-1-0.4l-0.7-0.3l-0.7-0.2l0,0l-2.2-0.8l0.6,0.2l-2.2-0.8h-0.3l-1-0.3h-0.1l-0.3-0.1l-2.7-0.9h-0.1l-0.5-0.1L231.7,6
	l-0.5-0.2l-0.9-0.2l-1.5-0.4l-0.9-0.2l-0.4-0.1l-0.9-0.2c-0.6-0.2-1.1-0.3-1.9-0.5h-0.4h-0.5l-0.8-0.2h-0.4l-2-0.5l0,0h-0.2l-2.8-1
	c-1.6-0.3-3.1-0.6-4.5-0.8h-0.3c-1.7-0.3-3.3-0.5-5-0.7l0,0h-0.7c-1.4-0.2-3.2-0.4-4.7-0.5h-0.4h-0.6h-0.7h-0.6
	c-1.5-0.1-3-0.2-4.6-0.3h0.6l-4-0.2h-1.4c-2.2,0-5.1,0-7.3,0c-8.3,0.1-16.6,0.9-24.8,2.3h-0.1c-4.9,0.8-9.6,2-14.4,3.4h-0.3
	c-7.1,2.1-14.1,4.6-20.8,7.7l-0.7,0.3l-0.3,0.1c-6.6,3-13.1,6.5-19.2,10.4l-0.7,0.5c-6.3,4.1-12.3,8.8-18,13.8l0,0
	c-3.5,3.1-6.8,6.3-9.9,9.8c-1.4,1.6-2.7,3.1-4.1,4.7c-3.1,3.6-5.9,7.4-8.5,11.4l0,0L60.7,66l-0.8,1.4l0.4-0.6L55.8,74v-0.1l-1.1,2.3
	L54,77.7c-0.8,1.6-1.6,3.1-2.3,4.5l0.5-1l-0.8,1.7l-0.5,1.1l0,0c-2.4,5.4-4.4,11.1-6,16.8l0,0c-1.9,6.7-3.2,13.6-3.8,20.5
	c0,0.4,0,0.8-0.1,1.2c-0.1,0.4-0.1,1.3-0.1,2c-0.5,6.5-0.4,13.1,0.2,19.6v0.4c0.5,6.3,1.6,12.5,3.3,18.6c0.3,0.9,0.5,1.9,0.8,2.9
	c0.7,2.6,1.6,5.2,2.4,7.7c0.6,1.8,1.2,3.3,1.7,4.3l0,0c0.8,1.7,1.6,3.5,2.4,5.4l1.6,3.4l0.7,1.3c1.3,2.6,2.6,5.1,3.9,7.3l0,0
	c1,1.7,2.2,3.6,3.5,5.5c1.8,2.7,3.4,4.9,4.9,6.8c1.5,2,3.8,4.7,5.4,6.6l0,0c10.5,12.1,40.3,41.3,92.2,47.8c13.4,1.7,27,1.7,40.4,0
	l1.6-0.2c3.9-0.5,7.8-1.2,11.7-2.1c6.3-1.3,12.6-3.1,18.7-5.2h0.3l0.8-0.3l1.9-0.7l0.6-0.2l0.7-0.3l1.1-0.4l0.5-0.2h0.1
	c2.1-0.8,4.3-1.7,6.6-2.7c7-3.1,13.8-6.8,20.2-11c1.3-0.8,2.7-1.8,4.1-2.8c1.4-1,2.4-1.8,3.7-2.7l0.9-0.6c0.8-0.6,1.7-1.3,2.5-2
	c1.9-1.5,3.8-3.1,5.7-4.7l1.1-0.9c5.6-5.1,10.7-10.6,15.3-16.6l0.1-0.2V208l0.6-0.7c1.6-1.9,3-3.9,4.4-5.9c0.8-1.1,1.5-2.2,2.2-3.3
	c0.7-1.1,1.6-2.6,2.4-4.1c1.1-1.8,2.2-3.7,3.1-5.3l3.1-5.6c0.3-0.7,0.7-1.4,1-2.1l1-2.1c0.1-0.2,0.2-0.5,0.3-0.8c0-0.1,0-0.1,0-0.2
	c1.6-3.3,2.8-6.7,3.9-10.2l0.2-0.8c0.6-2,1.3-4.3,1.8-6.5l0.8-3c0.1-0.5,0.3-1.1,0.4-1.7c0.6-2.6,1.1-5.3,1.5-8
	c0-0.6,0.2-1.1,0.3-1.7c0.4-3.1,0.8-6.6,0.9-10.3l0,0C330.7,135.9,330.8,135.8,330.8,135.6z"/>
<path class="st4" d="M167.5,108.2c2.6,0.4,5.2-0.3,7.3-1.8C172.6,107.8,170.1,108.4,167.5,108.2z"/>
<path class="st4" d="M156.2,101.1c0,0-0.2,2.4,3.9,5.1c0,0-23.9,10.1-27.4,12.3l28.4-12c-9-6.8-1-12.1-1-12.1
	C157.3,95.4,155.7,98.2,156.2,101.1z"/>
<path class="st5" d="M325.2,243.3c7.3-8.4,12.5-23.5,16.2-38.5C337.8,218.3,332.4,231.3,325.2,243.3z"/>
<path class="st5" d="M185.4,323.6c4.5-0.1,9-0.6,13.4-1.3c24.7-2.7,48.6-11,69.6-24.3c-19.3,11.3-40.5,19.1-62.5,23
	C199.2,322.3,192.3,323.2,185.4,323.6z"/>
<path class="st5" d="M343,197.3c2.5-12.1,4.5-24.3,5.8-36.6l-4.9,31.2C343.7,193.8,343.4,195.6,343,197.3z"/>
<path class="st5" d="M20.2,227.2c7.9,17.1,19.1,32.4,32.7,45.4C40,259,29,243.8,20.2,227.2z"/>
<path class="st5" d="M89.5,301.1"/>
<path class="st5" d="M11.5,141.1c-9.7,18.7-5.8,43.7-0.4,61.9C3.5,168.1,7.6,149.8,11.5,141.1z"/>
<linearGradient id="SVGID_2_" gradientUnits="userSpaceOnUse" x1="188.9356" y1="876.5665" x2="188.9356" y2="893.774" gradientTransform="matrix(1 0 0 -1 -37.31 1001.8482)">
	<stop  offset="9.000000e-02" style="stop-color:#24488E"/>
	<stop  offset="0.47" style="stop-color:#0D75F1"/>
	<stop  offset="1" style="stop-color:#6DC8E1"/>
</linearGradient>
<path class="st6" d="M164.3,106.6c-1.4-0.1-2.9-0.4-4.2-0.8l0,0c-10.6,6.5-29.1,20-29.1,20l0,0c1.4,3,2.7,5.8,2.7,5.8
	s14.6-14.2,23.5-17c0,0,13.5-6.9,15.3-10.1C170.1,106.4,167.1,107.2,164.3,106.6z"/>
<path class="st7" d="M167.5,108.2c-1.9-0.2-3.7-0.7-5.4-1.4l1.4,0.6C164.8,107.9,166.1,108.1,167.5,108.2z"/>
<linearGradient id="SVGID_3_" gradientUnits="userSpaceOnUse" x1="-45.3206" y1="1024.5134" x2="-11.828" y2="1002.0395" gradientTransform="matrix(1.28 5.000000e-02 4.000000e-02 -1.15 34.9954 1233.0634)">
	<stop  offset="0" style="stop-color:#0ED1FA"/>
	<stop  offset="5.000000e-02" style="stop-color:#0EC8F1"/>
	<stop  offset="0.14" style="stop-color:#0EAED8"/>
	<stop  offset="0.25" style="stop-color:#0F85AF"/>
	<stop  offset="0.36" style="stop-color:#0F5681"/>
	<stop  offset="0.5" style="stop-color:#11477D"/>
	<stop  offset="0.66" style="stop-color:#133979"/>
	<stop  offset="0.78" style="stop-color:#171D70"/>
</linearGradient>
<path class="st8" d="M56.3,68.1c-3.1-4.4-5.8-9-8.1-13.8c-4.5-8.6-9.1-19.4-8.5-27.1l0,0c-6.7,8.2-12,17.6-15.5,27.6
	C21.4,66.3,20,78.2,20.2,90c0.2,1.4,0.4,2.7,0.6,4.1C21.2,96.2,39.4,74.7,56.3,68.1z"/>
<linearGradient id="SVGID_4_" gradientUnits="userSpaceOnUse" x1="207.2576" y1="907.6428" x2="168.4499" y2="900.7501" gradientTransform="matrix(1 0 0 -1 -37.31 1001.8482)">
	<stop  offset="9.000000e-02" style="stop-color:#24488E"/>
	<stop  offset="0.47" style="stop-color:#0D75F1"/>
	<stop  offset="1" style="stop-color:#6DC8E1"/>
</linearGradient>
<path class="st9" d="M116.5,83.2c0.8,11.2,6.2,39.9,6.2,39.9c18.6-4.2,28.2-17.6,46.8-21.8C169.5,101.3,135.9,90.3,116.5,83.2z"/>
<path class="st10" d="M164.8,104.4L164.8,104.4c-1.1-0.4-2.1-0.9-3.1-1.6c0,0-34.4,16.6-35,17.8c-0.3,0.6,1.5,5.6,3.3,10.1l0,0
	C130.1,130.8,152.1,112.9,164.8,104.4z"/>
<path class="st5" d="M89.5,301.1c1.7,0.9,3.4,1.8,5.1,2.7c27.9,14.6,59.3,21.4,90.8,19.7C166.9,324.4,131,322.4,89.5,301.1z"/>
<path class="st5" d="M11.5,141.1c1.2-2.3,2.7-4.5,4.3-6.6C14,136.4,12.5,138.6,11.5,141.1z"/>
<path d="M161,106.4l1.1,0.5c1.7,0.7,3.6,1.2,5.4,1.4c2.6,0.2,5.1-0.5,7.3-1.8c3.5-1.6,5.1-5.8,3.5-9.3c-0.1-0.2-0.2-0.5-0.4-0.7
	c0,0-6.3-8.7-18-2.2C160,94.2,152,99.6,161,106.4z"/>
<linearGradient id="SVGID_5_" gradientUnits="userSpaceOnUse" x1="214.9577" y1="938.3328" x2="241.4362" y2="970.9031" gradientTransform="matrix(0.82 3.000000e-02 4.000000e-02 -0.99 -196.7316 1008.6359)">
	<stop  offset="0" style="stop-color:#878787"/>
	<stop  offset="0.32" style="stop-color:#BDBDBD"/>
	<stop  offset="0.39" style="stop-color:#CECECE"/>
	<stop  offset="0.5" style="stop-color:#E4E4E4"/>
	<stop  offset="0.63" style="stop-color:#F3F3F3"/>
	<stop  offset="0.78" style="stop-color:#FCFCFC"/>
	<stop  offset="1" style="stop-color:#FFFFFF"/>
</linearGradient>
<path class="st11" d="M46.4,70.6c-2-3.8-3.6-7.8-5-11.8c-2.8-7.3-5.6-16.6-5.2-23.3l0,0c-4.5,7.4-7.9,15.5-10.1,24
	c-1.9,10-2.9,20.2-2.9,30.4c0.1,1.1,0.2,2.3,0.4,3.5C23.7,95.1,35.5,76.5,46.4,70.6z"/>
<path class="st5" d="M52.9,272.6c10.7,11.2,23,20.9,36.6,28.5C76.3,293,64,283.4,52.9,272.6z"/>
<path class="st5" d="M13.7,213.5c2,4.7,4.2,9.3,6.6,13.8c-3.7-7.8-6.7-16-9.1-24.3C11.8,206.3,12.6,209.8,13.7,213.5z"/>
<path class="st4" d="M268.5,297.9c9.1-5.3,17.8-11.4,25.8-18.3c12.4-10.2,22.8-22.5,30.9-36.4C310.4,265.3,291,283.9,268.5,297.9z"
	/>
<path class="st5" d="M343,197.3c-0.5,2.4-1.1,4.9-1.7,7.4C342,202.3,342.5,199.9,343,197.3z"/>
<linearGradient id="SVGID_6_" gradientUnits="userSpaceOnUse" x1="124.0847" y1="1050.3143" x2="124.0847" y2="1050.3143" gradientTransform="matrix(1 0 0 1 -10.66 -900.35)">
	<stop  offset="0" style="stop-color:#0ED1FA"/>
	<stop  offset="5.000000e-02" style="stop-color:#0EC8F1"/>
	<stop  offset="0.14" style="stop-color:#0EAED8"/>
	<stop  offset="0.25" style="stop-color:#0F85AF"/>
	<stop  offset="0.36" style="stop-color:#0F5681"/>
	<stop  offset="0.5" style="stop-color:#11477D"/>
	<stop  offset="0.66" style="stop-color:#133979"/>
	<stop  offset="0.78" style="stop-color:#171D70"/>
	<stop  offset="0.99" style="stop-color:#0E91F6"/>
</linearGradient>
<polygon class="st12" points="113.4,150 113.4,150 113.4,150 "/>
<linearGradient id="SVGID_7_" gradientUnits="userSpaceOnUse" x1="128.7183" y1="1102.2982" x2="132.1404" y2="1102.2982" gradientTransform="matrix(1 0 0 1 -18.74 -950.72)">
	<stop  offset="0" style="stop-color:#0ED1FA"/>
	<stop  offset="5.000000e-02" style="stop-color:#0EC8F1"/>
	<stop  offset="0.14" style="stop-color:#0EAED8"/>
	<stop  offset="0.25" style="stop-color:#0F85AF"/>
	<stop  offset="0.36" style="stop-color:#0F5681"/>
	<stop  offset="0.5" style="stop-color:#11477D"/>
	<stop  offset="0.66" style="stop-color:#133979"/>
	<stop  offset="0.78" style="stop-color:#171D70"/>
	<stop  offset="0.99" style="stop-color:#0E91F6"/>
</linearGradient>
<path class="st13" d="M110,153.2c0.7-1.5,1.9-2.6,3.4-3.2C111.8,150.4,110.5,151.6,110,153.2z"/>
<linearGradient id="SVGID_8_" gradientUnits="userSpaceOnUse" x1="19.4107" y1="1123.6191" x2="374.5998" y2="1123.6191" gradientTransform="matrix(1 0 0 1 -18.74 -950.72)">
	<stop  offset="0" style="stop-color:#0ED1FA"/>
	<stop  offset="5.000000e-02" style="stop-color:#0EC8F1"/>
	<stop  offset="0.14" style="stop-color:#0EAED8"/>
	<stop  offset="0.25" style="stop-color:#0F85AF"/>
	<stop  offset="0.36" style="stop-color:#0F5681"/>
	<stop  offset="0.5" style="stop-color:#11477D"/>
	<stop  offset="0.66" style="stop-color:#133979"/>
	<stop  offset="0.78" style="stop-color:#171D70"/>
	<stop  offset="0.99" style="stop-color:#0E91F6"/>
</linearGradient>
<path class="st14" d="M355.4,114.9l-7.3,19.6l-5.1-1.6c0,0,0.2-39.8-8.5-59.3c5.1,18.3,10.5,49,0.6,79.2c0,0-7.3-32.8-15.1-27.5
	c-1,1.5-1.6,1.6-1.6,1.6c0.4-0.6,1-1.2,1.6-1.6c2.2-3.5,6.2-14.6,8-49.1l-3.9,2.3c0,0-1.5-10.9-14.1-23.6
	c-7.2-9.7-17.3-16.9-28.8-20.6c0,0-25.5-12.3-47-12.1l-0.1,0.7c13.4,4.7,26.2,11.1,38,19.1L256.6,45c18.1,0.1,51.3,6.2,69.4,46.7
	c0,0-15,4.2-13.1,14c0,0.4,0.1,0.6,0.1,0.6c-0.1-0.2-0.1-0.4-0.1-0.6l0,0c-1.9-9.7,13.1-14,13.1-14c-18.1-40.4-51.4-46.5-69.4-46.7
	l-0.5,0.1l-11.9,0.9l0,0c18.8,5.7,36.3,15.2,51.3,28c4.2,5.1,7.8,10.6,10.8,16.5l6.2,19.4l-0.7,8.4l-5.7-3.8l-8.6-9.7l0.8,3.3
	l-0.8-0.3c0,0,5.7,23.3,1.8,67.7l-8.8-8.7c0,0-3.3-8.6-4.2-8.6c0,0-0.2,22-1.8,25.6c0,0-6.6,28.3-16.5,43.7c0,0,2.8-7.7-2-4
	c0,0-1.1-1.4,1.3-21.7c0,0,0.7-2.8-5.3,6.3c0,0-21.3,36-47.2,39.6c0,0-30.6,8.8-68-8.4l-15.8-9.7c0,0-37.2-15.7-58.3-49.1
	c0,0-7-11,0.8-21.3c0,0,5.9-8.9,29.9-9h10.2c1.1-0.5,2.3-0.8,3.5-1c10.3,0.2,20.6,2.1,30.2,5.8c0,0-16.5-30.8-22.2-39
	c0,0-0.8-1.7-2.8-6.1c0,0-3.5-3.5-1.5-14c0,0,1.8-35.2,24.4-53.7c0,0-13.2-6.5-45.5,19.1c0,0-18.5-9.7-43,2.6l0,0
	c-8.4,4-16.1,9.3-22.9,15.7c-9.9,9.9-37.3,40.1-32.5,55.1c0,0,7.2-6.5,9.4-5.4l5.3,5.4c-1.6,2.1-3.1,4.3-4.3,6.6
	c-3.9,8.6-8.1,27-0.5,61.9c2.4,8.3,5.5,16.4,9.1,24.3c8.8,16.5,19.8,31.8,32.7,45.4c11.1,10.8,23.3,20.4,36.6,28.5l0,0
	c41.5,21.3,77.4,23.3,95.9,22.5c6.9-0.4,13.7-1.3,20.5-2.6c22-4,43.2-11.8,62.5-23.1c22.5-14,41.8-32.6,56.6-54.6
	c7.2-12,12.6-25,16.1-38.5c0.6-2.4,1.2-4.9,1.7-7.4c0.3-1.7,0.7-3.5,1-5.3l4.9-31.2l0,0l0.2-1.1C349,159.7,358,128.9,355.4,114.9z
	 M78.8,82v-0.1H79L78.8,82L78.8,82z M21.1,165c0.1-14.9,2.6-29.6,7.5-43.7C23.6,135.4,21.1,150.1,21.1,165z M86.1,248.8l-0.1,0.4
	L86.1,248.8z M86.1,251.5L86.1,251.5c-0.1-0.2-0.2-0.4-0.2-0.6C86,251.1,86,251.3,86.1,251.5z M130.2,275.3
	c-25.5-2.3-58.2-21.3-59.3-21.8C71.9,254.1,104.7,273.1,130.2,275.3c0,0,45.9,6.6,68.1,1C176.1,282,130.2,275.3,130.2,275.3z
	 M309.4,207.4L309.4,207.4c0,0,0,0.2-0.2,0.7C309.4,207.6,309.4,207.4,309.4,207.4L309.4,207.4z M251.6,291.9l0.5-0.3L251.6,291.9z
	 M251.8,291.9c2.8-0.4,32.4-5.1,70.4-50.7C284.2,286.9,254.5,291.6,251.8,291.9z"/>
<path class="st5" d="M109.7,156.3c-0.1-1.1-0.1-2.2,0.3-3.2C109.6,154.2,109.5,155.3,109.7,156.3z"/>
<path class="st7" d="M161,106.4l1.1,0.5L161,106.4z"/>
<path class="st7" d="M162.1,106.9l-1.1-0.5c0.8,0.4,1.6,0.8,2.4,1.1L162.1,106.9z"/>
<path class="st5" d="M334.4,73.6c-1.5-5.7-3.5-11.4-5.8-16.8l4.6,14.3C333.6,71.9,334,72.8,334.4,73.6z"/>
<path class="st5" d="M328.4,67.6v-0.2c0,3.1-0.2,6-0.4,8.8l0.3-0.2L328.4,67.6z"/>
<linearGradient id="SVGID_9_" gradientUnits="userSpaceOnUse" x1="113.2083" y1="1688.0552" x2="127.6247" y2="1688.0552" gradientTransform="matrix(0.52 -0.82 -0.81 -0.51 1585.082 1010.9539)">
	<stop  offset="0" style="stop-color:#0D75F1"/>
	<stop  offset="0.15" style="stop-color:#64D0E9"/>
	<stop  offset="0.28" style="stop-color:#6DC8E1"/>
	<stop  offset="0.37" style="stop-color:#77BFD8"/>
	<stop  offset="0.54" style="stop-color:#95CEE2"/>
	<stop  offset="0.91" style="stop-color:#E2F5FA"/>
	<stop  offset="0.93" style="stop-color:#E5F7FB"/>
	<stop  offset="0.99" style="stop-color:#D6EFF6"/>
</linearGradient>
<path class="st15" d="M290.5,65.2c9.1-5.3,14.8,0.4,25.3,6.6c-19.4-23.5-37.6-30.9-55.1-36.1l-2.6-0.3l-13.9-3.6c3,2,10,4.5,14,7
	C258.1,38.9,280,48.7,290.5,65.2z"/>
<path class="st5" d="M318.3,127c0,0,0.7,0,1.6-1.6C319.3,125.8,318.7,126.3,318.3,127z"/>
<linearGradient id="SVGID_10_" gradientUnits="userSpaceOnUse" x1="356.3986" y1="897.5601" x2="377.829" y2="897.5601" gradientTransform="matrix(1 0 0 -1 -37.31 1001.8482)">
	<stop  offset="0" style="stop-color:#0D75F1"/>
	<stop  offset="0.15" style="stop-color:#64D0E9"/>
	<stop  offset="0.28" style="stop-color:#6DC8E1"/>
	<stop  offset="0.37" style="stop-color:#77BFD8"/>
	<stop  offset="0.54" style="stop-color:#95CEE2"/>
	<stop  offset="0.91" style="stop-color:#E2F5FA"/>
	<stop  offset="0.93" style="stop-color:#E5F7FB"/>
	<stop  offset="0.99" style="stop-color:#D6EFF6"/>
</linearGradient>
<path class="st16" d="M334.8,154.5c10.2-31.6,4.7-63.7-0.7-82.9c-0.4-0.9-0.8-1.8-1.3-2.6L328,54c0,3.9-0.2,7.6-0.3,11.2v0.2
	l-0.2,8.8l-0.3,0.2c-1.8,36.1-6,47.7-8.3,51.4C327.3,120.2,334.8,154.5,334.8,154.5z"/>
<path class="st5" d="M256.6,45.1c-4.2-0.1-8.3,0.3-12.5,1l11.9-0.9L256.6,45.1z"/>
<path class="st5" d="M312.9,105.8c0,0.2,0,0.4,0.1,0.6C313,106.2,313,106,312.9,105.8z"/>
<linearGradient id="SVGID_11_" gradientUnits="userSpaceOnUse" x1="43.1421" y1="780.3796" x2="385.11" y2="780.3796" gradientTransform="matrix(1 0 0 -1 -37.31 1001.8482)">
	<stop  offset="8.000000e-02" style="stop-color:#11477D"/>
	<stop  offset="0.39" style="stop-color:#0EB7F9"/>
	<stop  offset="0.52" style="stop-color:#0ED1FA"/>
	<stop  offset="0.71" style="stop-color:#0E9EF7"/>
	<stop  offset="0.84" style="stop-color:#0E77F5"/>
	<stop  offset="0.99" style="stop-color:#004482"/>
</linearGradient>
<path class="st17" d="M27.8,120.5c0,0-19.3,37.8,1.5,86.2c0,0,23.7,52.2,93.1,66.5c0,0,51.6,11.7,105.2-6.5
	c31.4-13.9,59.2-34.7,81.4-60.9c0,0-19.3,93.8-100.5,101.9c0,0,58.2,1.4,96.4-48.5c0,0,41.5-35.8,34.6-85.8l8.3-13.5
	c0,0-8.9,64.6-22.5,80.5c0,0-37.7,54.2-85.3,69.5c0,0-72.3,36.6-160.2-15.3c0,0-55.1-36.8-68.4-87.4c0,0-14.6-48.5,3.5-73.9
	l-5.3-5.4L27.8,120.5z"/>
<linearGradient id="SVGID_12_" gradientUnits="userSpaceOnUse" x1="131.124" y1="938.2266" x2="168.427" y2="939.5613" gradientTransform="matrix(1 0 0 -1 -37.31 1001.8482)">
	<stop  offset="0" style="stop-color:#878787"/>
	<stop  offset="0.34" style="stop-color:#BDBDBD"/>
	<stop  offset="0.36" style="stop-color:#C4C4C4"/>
	<stop  offset="0.48" style="stop-color:#DEDEDE"/>
	<stop  offset="0.6" style="stop-color:#F0F0F0"/>
	<stop  offset="0.73" style="stop-color:#FBFBFB"/>
	<stop  offset="0.86" style="stop-color:#FFFFFF"/>
</linearGradient>
<path class="st18" d="M136.4,42.5c0,0-26.9,9.2-37.8,23c1.8,1.2,12.6,5.7,17,17c-0.1-0.6-0.3-15.4,20.8-39.8"/>
<linearGradient id="SVGID_13_" gradientUnits="userSpaceOnUse" x1="111.2646" y1="806.5988" x2="160.0473" y2="815.3361" gradientTransform="matrix(1 0 0 -1 -37.31 1001.8482)">
	<stop  offset="1.000000e-02" style="stop-color:#808080"/>
	<stop  offset="0.1" style="stop-color:#A0A0A0"/>
	<stop  offset="0.35" style="stop-color:#BDBDBD"/>
	<stop  offset="0.42" style="stop-color:#D0D0D0"/>
	<stop  offset="0.52" style="stop-color:#E5E5E5"/>
	<stop  offset="0.64" style="stop-color:#F4F4F4"/>
	<stop  offset="0.78" style="stop-color:#FCFCFC"/>
	<stop  offset="1" style="stop-color:#FFFFFF"/>
</linearGradient>
<path class="st19" d="M112.9,148.8h-10.1c-23.8,0-29.7,8.9-29.7,8.9c-7.7,10.3-0.7,21.2-0.7,21.2c21,33.2,58,48.8,58,48.8l0.9-0.7
	c-3.4-0.4-12.5-16.3-12.5-16.3c-18.3-33.1-9.5-55.7-9.5-55.7c-0.2-1.1-0.1-2.2,0.3-3.2C110,150.4,111.3,149.2,112.9,148.8z"/>
</svg>
